<svg width="1015" height="332" viewBox="0 0 1015 332" fill="none" xmlns="http://www.w3.org/2000/svg">
<rect width="1015" height="332" fill="white"/>
<g clip-path="url(#clip0_149_710)">
<path d="M271.6 158.4L279.067 150.933C279.314 150.686 279.453 150.35 279.453 150C279.453 149.65 279.314 149.314 279.067 149.067L271.6 141.6C271.415 141.415 271.18 141.289 270.924 141.237C270.667 141.186 270.402 141.212 270.16 141.312C269.919 141.412 269.712 141.581 269.567 141.799C269.422 142.016 269.345 142.272 269.345 142.533L269.347 148.68L225.867 148.678V151.322L269.347 151.32L269.345 157.467C269.345 157.728 269.422 157.984 269.567 158.201C269.712 158.419 269.919 158.588 270.16 158.688C270.402 158.788 270.667 158.814 270.924 158.763C271.18 158.711 271.415 158.585 271.6 158.4Z" fill="black"/>
</g>
<g clip-path="url(#clip1_149_710)">
<path d="M497.6 158.4L505.067 150.933C505.314 150.686 505.453 150.35 505.453 150C505.453 149.65 505.314 149.314 505.067 149.067L497.6 141.6C497.415 141.415 497.18 141.289 496.924 141.237C496.667 141.186 496.402 141.212 496.16 141.312C495.919 141.412 495.712 141.581 495.567 141.799C495.422 142.016 495.345 142.272 495.345 142.533L495.347 148.68L451.867 148.678V151.322L495.347 151.32L495.345 157.467C495.345 157.728 495.422 157.984 495.567 158.201C495.712 158.419 495.919 158.588 496.16 158.688C496.402 158.788 496.667 158.814 496.924 158.763C497.18 158.711 497.415 158.585 497.6 158.4Z" fill="black"/>
</g>
<g clip-path="url(#clip2_149_710)">
<path d="M723.6 158.4L731.067 150.933C731.314 150.686 731.453 150.35 731.453 150C731.453 149.65 731.314 149.314 731.067 149.067L723.6 141.6C723.415 141.415 723.18 141.289 722.924 141.237C722.667 141.186 722.402 141.212 722.16 141.312C721.919 141.412 721.712 141.581 721.567 141.799C721.422 142.016 721.345 142.272 721.345 142.533L721.347 148.68L677.867 148.678V151.322L721.347 151.32L721.345 157.467C721.345 157.728 721.422 157.984 721.567 158.201C721.712 158.419 721.919 158.588 722.16 158.688C722.402 158.788 722.667 158.814 722.924 158.763C723.18 158.711 723.415 158.585 723.6 158.4Z" fill="black"/>
</g>
<circle cx="139" cy="150" r="46" fill="#FFD9D9"/>
<path d="M129.22 213.24C129.22 213.947 129.053 214.613 128.72 215.24C128.387 215.867 127.853 216.38 127.12 216.78C126.387 217.167 125.447 217.36 124.3 217.36H121.78V223H119.5V209.1H124.3C125.367 209.1 126.267 209.287 127 209.66C127.747 210.02 128.3 210.513 128.66 211.14C129.033 211.767 129.22 212.467 129.22 213.24ZM124.3 215.5C125.167 215.5 125.813 215.307 126.24 214.92C126.667 214.52 126.88 213.96 126.88 213.24C126.88 211.72 126.02 210.96 124.3 210.96H121.78V215.5H124.3ZM146.035 209.1V223H143.755V213.48L139.515 223H137.935L133.675 213.48V223H131.395V209.1H133.855L138.735 220L143.595 209.1H146.035ZM153.611 223.14C152.678 223.14 151.838 222.98 151.091 222.66C150.345 222.327 149.758 221.86 149.331 221.26C148.905 220.66 148.691 219.96 148.691 219.16H151.131C151.185 219.76 151.418 220.253 151.831 220.64C152.258 221.027 152.851 221.22 153.611 221.22C154.398 221.22 155.011 221.033 155.451 220.66C155.891 220.273 156.111 219.78 156.111 219.18C156.111 218.713 155.971 218.333 155.691 218.04C155.425 217.747 155.085 217.52 154.671 217.36C154.271 217.2 153.711 217.027 152.991 216.84C152.085 216.6 151.345 216.36 150.771 216.12C150.211 215.867 149.731 215.48 149.331 214.96C148.931 214.44 148.731 213.747 148.731 212.88C148.731 212.08 148.931 211.38 149.331 210.78C149.731 210.18 150.291 209.72 151.011 209.4C151.731 209.08 152.565 208.92 153.511 208.92C154.858 208.92 155.958 209.26 156.811 209.94C157.678 210.607 158.158 211.527 158.251 212.7H155.731C155.691 212.193 155.451 211.76 155.011 211.4C154.571 211.04 153.991 210.86 153.271 210.86C152.618 210.86 152.085 211.027 151.671 211.36C151.258 211.693 151.051 212.173 151.051 212.8C151.051 213.227 151.178 213.58 151.431 213.86C151.698 214.127 152.031 214.34 152.431 214.5C152.831 214.66 153.378 214.833 154.071 215.02C154.991 215.273 155.738 215.527 156.311 215.78C156.898 216.033 157.391 216.427 157.791 216.96C158.205 217.48 158.411 218.18 158.411 219.06C158.411 219.767 158.218 220.433 157.831 221.06C157.458 221.687 156.905 222.193 156.171 222.58C155.451 222.953 154.598 223.14 153.611 223.14Z" fill="#183153"/>
<path d="M121.5 165.75C121.004 165.75 120.588 165.582 120.252 165.246C119.916 164.91 119.749 164.495 119.75 164C119.75 163.504 119.918 163.088 120.254 162.752C120.59 162.416 121.005 162.249 121.5 162.25H156.5C156.996 162.25 157.412 162.418 157.748 162.754C158.084 163.09 158.251 163.505 158.25 164C158.25 164.496 158.082 164.912 157.746 165.248C157.41 165.584 156.995 165.751 156.5 165.75H121.5ZM125 160.5C124.038 160.5 123.213 160.157 122.527 159.471C121.841 158.785 121.499 157.961 121.5 157V137.75C121.5 136.788 121.843 135.963 122.529 135.277C123.215 134.591 124.039 134.249 125 134.25H153C153.963 134.25 154.787 134.593 155.473 135.279C156.159 135.965 156.501 136.789 156.5 137.75V157C156.5 157.963 156.157 158.787 155.471 159.473C154.785 160.159 153.961 160.501 153 160.5H125Z" fill="#CC3636"/>
<circle cx="365" cy="150" r="46" fill="#D9E3FF"/>
<path d="M343.22 213.24C343.22 213.947 343.053 214.613 342.72 215.24C342.387 215.867 341.853 216.38 341.12 216.78C340.387 217.167 339.447 217.36 338.3 217.36H335.78V223H333.5V209.1H338.3C339.367 209.1 340.267 209.287 341 209.66C341.747 210.02 342.3 210.513 342.66 211.14C343.033 211.767 343.22 212.467 343.22 213.24ZM338.3 215.5C339.167 215.5 339.813 215.307 340.24 214.92C340.667 214.52 340.88 213.96 340.88 213.24C340.88 211.72 340.02 210.96 338.3 210.96H335.78V215.5H338.3ZM347.675 213.58C348.008 213.02 348.448 212.587 348.995 212.28C349.555 211.96 350.215 211.8 350.975 211.8V214.16H350.395C349.501 214.16 348.821 214.387 348.355 214.84C347.901 215.293 347.675 216.08 347.675 217.2V223H345.395V211.98H347.675V213.58ZM354.23 210.52C353.817 210.52 353.47 210.38 353.19 210.1C352.91 209.82 352.77 209.473 352.77 209.06C352.77 208.647 352.91 208.3 353.19 208.02C353.47 207.74 353.817 207.6 354.23 207.6C354.63 207.6 354.97 207.74 355.25 208.02C355.53 208.3 355.67 208.647 355.67 209.06C355.67 209.473 355.53 209.82 355.25 210.1C354.97 210.38 354.63 210.52 354.23 210.52ZM355.35 211.98V223H353.07V211.98H355.35ZM363.904 211.8C364.77 211.8 365.544 211.98 366.224 212.34C366.917 212.7 367.457 213.233 367.844 213.94C368.23 214.647 368.424 215.5 368.424 216.5V223H366.164V216.84C366.164 215.853 365.917 215.1 365.424 214.58C364.93 214.047 364.257 213.78 363.404 213.78C362.55 213.78 361.87 214.047 361.364 214.58C360.87 215.1 360.624 215.853 360.624 216.84V223H358.344V211.98H360.624V213.24C360.997 212.787 361.47 212.433 362.044 212.18C362.63 211.927 363.25 211.8 363.904 211.8ZM373.992 213.84V219.94C373.992 220.353 374.085 220.653 374.272 220.84C374.472 221.013 374.805 221.1 375.272 221.1H376.672V223H374.872C373.845 223 373.059 222.76 372.512 222.28C371.965 221.8 371.692 221.02 371.692 219.94V213.84H370.392V211.98H371.692V209.24H373.992V211.98H376.672V213.84H373.992ZM388.873 217.22C388.873 217.633 388.847 218.007 388.793 218.34H380.373C380.44 219.22 380.767 219.927 381.353 220.46C381.94 220.993 382.66 221.26 383.513 221.26C384.74 221.26 385.607 220.747 386.113 219.72H388.573C388.24 220.733 387.633 221.567 386.753 222.22C385.887 222.86 384.807 223.18 383.513 223.18C382.46 223.18 381.513 222.947 380.673 222.48C379.847 222 379.193 221.333 378.713 220.48C378.247 219.613 378.013 218.613 378.013 217.48C378.013 216.347 378.24 215.353 378.693 214.5C379.16 213.633 379.807 212.967 380.633 212.5C381.473 212.033 382.433 211.8 383.513 211.8C384.553 211.8 385.48 212.027 386.293 212.48C387.107 212.933 387.74 213.573 388.193 214.4C388.647 215.213 388.873 216.153 388.873 217.22ZM386.493 216.5C386.48 215.66 386.18 214.987 385.593 214.48C385.007 213.973 384.28 213.72 383.413 213.72C382.627 213.72 381.953 213.973 381.393 214.48C380.833 214.973 380.5 215.647 380.393 216.5H386.493ZM393.397 213.58C393.731 213.02 394.171 212.587 394.717 212.28C395.277 211.96 395.937 211.8 396.697 211.8V214.16H396.117C395.224 214.16 394.544 214.387 394.077 214.84C393.624 215.293 393.397 216.08 393.397 217.2V223H391.117V211.98H393.397V213.58Z" fill="#183153"/>
<path d="M375.5 134.25H354.5V141.25H375.5M377.25 150C376.786 150 376.341 149.816 376.013 149.487C375.684 149.159 375.5 148.714 375.5 148.25C375.5 147.786 375.684 147.341 376.013 147.013C376.341 146.684 376.786 146.5 377.25 146.5C377.714 146.5 378.159 146.684 378.487 147.013C378.816 147.341 379 147.786 379 148.25C379 148.714 378.816 149.159 378.487 149.487C378.159 149.816 377.714 150 377.25 150ZM372 162.25H358V153.5H372M377.25 143H352.75C351.358 143 350.022 143.553 349.038 144.538C348.053 145.522 347.5 146.858 347.5 148.25V158.75H354.5V165.75H375.5V158.75H382.5V148.25C382.5 146.858 381.947 145.522 380.962 144.538C379.978 143.553 378.642 143 377.25 143Z" fill="#0505DB"/>
<circle cx="591" cy="150" r="46" fill="#E7D9FF"/>
<path d="M530.1 210.94V215.02H534.9V216.88H530.1V221.14H535.5V223H527.82V209.08H535.5V210.94H530.1ZM540.329 221.14H545.329V223H537.689V221.14L542.709 213.84H537.689V211.98H545.329V213.84L540.329 221.14ZM557.643 211.98L550.883 228.18H548.523L550.763 222.82L546.423 211.98H548.963L552.063 220.38L555.283 211.98H557.643ZM566.839 209.1V223H564.559V209.1H566.839ZM575.392 211.8C576.259 211.8 577.032 211.98 577.712 212.34C578.405 212.7 578.945 213.233 579.332 213.94C579.719 214.647 579.912 215.5 579.912 216.5V223H577.652V216.84C577.652 215.853 577.405 215.1 576.912 214.58C576.419 214.047 575.745 213.78 574.892 213.78C574.039 213.78 573.359 214.047 572.852 214.58C572.359 215.1 572.112 215.853 572.112 216.84V223H569.832V211.98H572.112V213.24C572.485 212.787 572.959 212.433 573.532 212.18C574.119 211.927 574.739 211.8 575.392 211.8ZM587.08 220.96L590.2 211.98H592.62L588.42 223H585.7L581.52 211.98H583.96L587.08 220.96ZM599.124 223.18C598.084 223.18 597.144 222.947 596.304 222.48C595.464 222 594.804 221.333 594.324 220.48C593.844 219.613 593.604 218.613 593.604 217.48C593.604 216.36 593.85 215.367 594.344 214.5C594.837 213.633 595.51 212.967 596.364 212.5C597.217 212.033 598.17 211.8 599.224 211.8C600.277 211.8 601.23 212.033 602.084 212.5C602.937 212.967 603.61 213.633 604.104 214.5C604.597 215.367 604.844 216.36 604.844 217.48C604.844 218.6 604.59 219.593 604.084 220.46C603.577 221.327 602.884 222 602.004 222.48C601.137 222.947 600.177 223.18 599.124 223.18ZM599.124 221.2C599.71 221.2 600.257 221.06 600.764 220.78C601.284 220.5 601.704 220.08 602.024 219.52C602.344 218.96 602.504 218.28 602.504 217.48C602.504 216.68 602.35 216.007 602.044 215.46C601.737 214.9 601.33 214.48 600.824 214.2C600.317 213.92 599.77 213.78 599.184 213.78C598.597 213.78 598.05 213.92 597.544 214.2C597.05 214.48 596.657 214.9 596.364 215.46C596.07 216.007 595.924 216.68 595.924 217.48C595.924 218.667 596.224 219.587 596.824 220.24C597.437 220.88 598.204 221.2 599.124 221.2ZM608.258 210.52C607.844 210.52 607.498 210.38 607.218 210.1C606.938 209.82 606.798 209.473 606.798 209.06C606.798 208.647 606.938 208.3 607.218 208.02C607.498 207.74 607.844 207.6 608.258 207.6C608.658 207.6 608.998 207.74 609.278 208.02C609.558 208.3 609.698 208.647 609.698 209.06C609.698 209.473 609.558 209.82 609.278 210.1C608.998 210.38 608.658 210.52 608.258 210.52ZM609.378 211.98V223H607.098V211.98H609.378ZM611.611 217.48C611.611 216.347 611.838 215.353 612.291 214.5C612.758 213.633 613.398 212.967 614.211 212.5C615.024 212.033 615.958 211.8 617.011 211.8C618.344 211.8 619.444 212.12 620.311 212.76C621.191 213.387 621.784 214.287 622.091 215.46H619.631C619.431 214.913 619.111 214.487 618.671 214.18C618.231 213.873 617.678 213.72 617.011 213.72C616.078 213.72 615.331 214.053 614.771 214.72C614.224 215.373 613.951 216.293 613.951 217.48C613.951 218.667 614.224 219.593 614.771 220.26C615.331 220.927 616.078 221.26 617.011 221.26C618.331 221.26 619.204 220.68 619.631 219.52H622.091C621.771 220.64 621.171 221.533 620.291 222.2C619.411 222.853 618.318 223.18 617.011 223.18C615.958 223.18 615.024 222.947 614.211 222.48C613.398 222 612.758 221.333 612.291 220.48C611.838 219.613 611.611 218.613 611.611 217.48ZM625.523 210.52C625.11 210.52 624.763 210.38 624.483 210.1C624.203 209.82 624.063 209.473 624.063 209.06C624.063 208.647 624.203 208.3 624.483 208.02C624.763 207.74 625.11 207.6 625.523 207.6C625.923 207.6 626.263 207.74 626.543 208.02C626.823 208.3 626.963 208.647 626.963 209.06C626.963 209.473 626.823 209.82 626.543 210.1C626.263 210.38 625.923 210.52 625.523 210.52ZM626.643 211.98V223H624.363V211.98H626.643ZM635.197 211.8C636.063 211.8 636.837 211.98 637.517 212.34C638.21 212.7 638.75 213.233 639.137 213.94C639.523 214.647 639.717 215.5 639.717 216.5V223H637.457V216.84C637.457 215.853 637.21 215.1 636.717 214.58C636.223 214.047 635.55 213.78 634.697 213.78C633.843 213.78 633.163 214.047 632.657 214.58C632.163 215.1 631.917 215.853 631.917 216.84V223H629.637V211.98H631.917V213.24C632.29 212.787 632.763 212.433 633.337 212.18C633.923 211.927 634.543 211.8 635.197 211.8ZM647.065 211.8C647.918 211.8 648.672 211.973 649.325 212.32C649.992 212.653 650.512 213.073 650.885 213.58V211.98H653.185V223.18C653.185 224.193 652.972 225.093 652.545 225.88C652.118 226.68 651.498 227.307 650.685 227.76C649.885 228.213 648.925 228.44 647.805 228.44C646.312 228.44 645.072 228.087 644.085 227.38C643.098 226.687 642.538 225.74 642.405 224.54H644.665C644.838 225.113 645.205 225.573 645.765 225.92C646.338 226.28 647.018 226.46 647.805 226.46C648.725 226.46 649.465 226.18 650.025 225.62C650.598 225.06 650.885 224.247 650.885 223.18V221.34C650.498 221.86 649.972 222.3 649.305 222.66C648.652 223.007 647.905 223.18 647.065 223.18C646.105 223.18 645.225 222.94 644.425 222.46C643.638 221.967 643.012 221.287 642.545 220.42C642.092 219.54 641.865 218.547 641.865 217.44C641.865 216.333 642.092 215.353 642.545 214.5C643.012 213.647 643.638 212.987 644.425 212.52C645.225 212.04 646.105 211.8 647.065 211.8ZM650.885 217.48C650.885 216.72 650.725 216.06 650.405 215.5C650.098 214.94 649.692 214.513 649.185 214.22C648.678 213.927 648.132 213.78 647.545 213.78C646.958 213.78 646.412 213.927 645.905 214.22C645.398 214.5 644.985 214.92 644.665 215.48C644.358 216.027 644.205 216.68 644.205 217.44C644.205 218.2 644.358 218.867 644.665 219.44C644.985 220.013 645.398 220.453 645.905 220.76C646.425 221.053 646.972 221.2 647.545 221.2C648.132 221.2 648.678 221.053 649.185 220.76C649.692 220.467 650.098 220.04 650.405 219.48C650.725 218.907 650.885 218.24 650.885 217.48Z" fill="#183153"/>
<path d="M592.75 160.5V164H599.75V167.5H582.25V164H589.25V160.5H575.236C575.006 160.499 574.779 160.452 574.567 160.362C574.355 160.273 574.163 160.142 574.002 159.979C573.84 159.815 573.713 159.621 573.627 159.407C573.541 159.194 573.498 158.966 573.5 158.736V136.014C573.5 135.039 574.296 134.25 575.236 134.25H606.764C607.723 134.25 608.5 135.036 608.5 136.012V158.736C608.5 159.711 607.704 160.5 606.764 160.5H592.75Z" fill="#7B2EFF"/>
<circle cx="817" cy="150" r="46" fill="#FFD9F0"/>
<path d="M765.56 213.1C765.2 212.407 764.7 211.887 764.06 211.54C763.42 211.18 762.68 211 761.84 211C760.92 211 760.1 211.207 759.38 211.62C758.66 212.033 758.093 212.62 757.68 213.38C757.28 214.14 757.08 215.02 757.08 216.02C757.08 217.02 757.28 217.907 757.68 218.68C758.093 219.44 758.66 220.027 759.38 220.44C760.1 220.853 760.92 221.06 761.84 221.06C763.08 221.06 764.087 220.713 764.86 220.02C765.633 219.327 766.107 218.387 766.28 217.2H761.06V215.38H768.72V217.16C768.573 218.24 768.187 219.233 767.56 220.14C766.947 221.047 766.14 221.773 765.14 222.32C764.153 222.853 763.053 223.12 761.84 223.12C760.533 223.12 759.34 222.82 758.26 222.22C757.18 221.607 756.32 220.76 755.68 219.68C755.053 218.6 754.74 217.38 754.74 216.02C754.74 214.66 755.053 213.44 755.68 212.36C756.32 211.28 757.18 210.44 758.26 209.84C759.353 209.227 760.547 208.92 761.84 208.92C763.32 208.92 764.633 209.287 765.78 210.02C766.94 210.74 767.78 211.767 768.3 213.1H765.56ZM775.549 223.14C774.615 223.14 773.775 222.98 773.029 222.66C772.282 222.327 771.695 221.86 771.269 221.26C770.842 220.66 770.629 219.96 770.629 219.16H773.069C773.122 219.76 773.355 220.253 773.769 220.64C774.195 221.027 774.789 221.22 775.549 221.22C776.335 221.22 776.949 221.033 777.389 220.66C777.829 220.273 778.049 219.78 778.049 219.18C778.049 218.713 777.909 218.333 777.629 218.04C777.362 217.747 777.022 217.52 776.609 217.36C776.209 217.2 775.649 217.027 774.929 216.84C774.022 216.6 773.282 216.36 772.709 216.12C772.149 215.867 771.669 215.48 771.269 214.96C770.869 214.44 770.669 213.747 770.669 212.88C770.669 212.08 770.869 211.38 771.269 210.78C771.669 210.18 772.229 209.72 772.949 209.4C773.669 209.08 774.502 208.92 775.449 208.92C776.795 208.92 777.895 209.26 778.749 209.94C779.615 210.607 780.095 211.527 780.189 212.7H777.669C777.629 212.193 777.389 211.76 776.949 211.4C776.509 211.04 775.929 210.86 775.209 210.86C774.555 210.86 774.022 211.027 773.609 211.36C773.195 211.693 772.989 212.173 772.989 212.8C772.989 213.227 773.115 213.58 773.369 213.86C773.635 214.127 773.969 214.34 774.369 214.5C774.769 214.66 775.315 214.833 776.009 215.02C776.929 215.273 777.675 215.527 778.249 215.78C778.835 216.033 779.329 216.427 779.729 216.96C780.142 217.48 780.349 218.18 780.349 219.06C780.349 219.767 780.155 220.433 779.769 221.06C779.395 221.687 778.842 222.193 778.109 222.58C777.389 222.953 776.535 223.14 775.549 223.14ZM792.019 209.1V210.96H788.319V223H786.039V210.96H782.319V209.1H792.019ZM801.803 209.1V223H799.523V209.1H801.803ZM812.017 223L808.817 217.44H807.077V223H804.797V209.1H809.597C810.664 209.1 811.564 209.287 812.297 209.66C813.044 210.033 813.597 210.533 813.957 211.16C814.33 211.787 814.517 212.487 814.517 213.26C814.517 214.167 814.25 214.993 813.717 215.74C813.197 216.473 812.39 216.973 811.297 217.24L814.737 223H812.017ZM807.077 215.62H809.597C810.45 215.62 811.09 215.407 811.517 214.98C811.957 214.553 812.177 213.98 812.177 213.26C812.177 212.54 811.964 211.98 811.537 211.58C811.11 211.167 810.464 210.96 809.597 210.96H807.077V215.62ZM832.349 213.24C832.349 213.947 832.182 214.613 831.849 215.24C831.516 215.867 830.982 216.38 830.249 216.78C829.516 217.167 828.576 217.36 827.429 217.36H824.909V223H822.629V209.1H827.429C828.496 209.1 829.396 209.287 830.129 209.66C830.876 210.02 831.429 210.513 831.789 211.14C832.162 211.767 832.349 212.467 832.349 213.24ZM827.429 215.5C828.296 215.5 828.942 215.307 829.369 214.92C829.796 214.52 830.009 213.96 830.009 213.24C830.009 211.72 829.149 210.96 827.429 210.96H824.909V215.5H827.429ZM839.303 223.18C838.263 223.18 837.323 222.947 836.483 222.48C835.643 222 834.983 221.333 834.503 220.48C834.023 219.613 833.783 218.613 833.783 217.48C833.783 216.36 834.03 215.367 834.523 214.5C835.017 213.633 835.69 212.967 836.543 212.5C837.397 212.033 838.35 211.8 839.403 211.8C840.457 211.8 841.41 212.033 842.263 212.5C843.117 212.967 843.79 213.633 844.283 214.5C844.777 215.367 845.023 216.36 845.023 217.48C845.023 218.6 844.77 219.593 844.263 220.46C843.757 221.327 843.063 222 842.183 222.48C841.317 222.947 840.357 223.18 839.303 223.18ZM839.303 221.2C839.89 221.2 840.437 221.06 840.943 220.78C841.463 220.5 841.883 220.08 842.203 219.52C842.523 218.96 842.683 218.28 842.683 217.48C842.683 216.68 842.53 216.007 842.223 215.46C841.917 214.9 841.51 214.48 841.003 214.2C840.497 213.92 839.95 213.78 839.363 213.78C838.777 213.78 838.23 213.92 837.723 214.2C837.23 214.48 836.837 214.9 836.543 215.46C836.25 216.007 836.103 216.68 836.103 217.48C836.103 218.667 836.403 219.587 837.003 220.24C837.617 220.88 838.383 221.2 839.303 221.2ZM849.557 213.58C849.891 213.02 850.331 212.587 850.877 212.28C851.437 211.96 852.097 211.8 852.857 211.8V214.16H852.277C851.384 214.16 850.704 214.387 850.237 214.84C849.784 215.293 849.557 216.08 849.557 217.2V223H847.277V211.98H849.557V213.58ZM857.613 213.84V219.94C857.613 220.353 857.706 220.653 857.893 220.84C858.093 221.013 858.426 221.1 858.893 221.1H860.293V223H858.493C857.466 223 856.68 222.76 856.133 222.28C855.586 221.8 855.313 221.02 855.313 219.94V213.84H854.013V211.98H855.313V209.24H857.613V211.98H860.293V213.84H857.613ZM861.635 217.44C861.635 216.333 861.861 215.353 862.315 214.5C862.781 213.647 863.408 212.987 864.195 212.52C864.995 212.04 865.875 211.8 866.835 211.8C867.701 211.8 868.455 211.973 869.095 212.32C869.748 212.653 870.268 213.073 870.655 213.58V211.98H872.955V223H870.655V221.36C870.268 221.88 869.741 222.313 869.075 222.66C868.408 223.007 867.648 223.18 866.795 223.18C865.848 223.18 864.981 222.94 864.195 222.46C863.408 221.967 862.781 221.287 862.315 220.42C861.861 219.54 861.635 218.547 861.635 217.44ZM870.655 217.48C870.655 216.72 870.495 216.06 870.175 215.5C869.868 214.94 869.461 214.513 868.955 214.22C868.448 213.927 867.901 213.78 867.315 213.78C866.728 213.78 866.181 213.927 865.675 214.22C865.168 214.5 864.755 214.92 864.435 215.48C864.128 216.027 863.975 216.68 863.975 217.44C863.975 218.2 864.128 218.867 864.435 219.44C864.755 220.013 865.168 220.453 865.675 220.76C866.195 221.053 866.741 221.2 867.315 221.2C867.901 221.2 868.448 221.053 868.955 220.76C869.461 220.467 869.868 220.04 870.175 219.48C870.495 218.907 870.655 218.24 870.655 217.48ZM878.229 208.2V223H875.949V208.2H878.229Z" fill="#183153"/>
<path d="M812.45 163.213C811.925 162.25 811.465 161.251 811.071 160.215C810.677 159.179 810.349 158.107 810.088 157H804.925C805.771 158.458 806.828 159.727 808.098 160.806C809.367 161.885 810.818 162.688 812.45 163.213ZM803.438 153.5H809.388C809.3 152.917 809.234 152.34 809.19 151.771C809.145 151.202 809.124 150.611 809.125 150C809.125 149.388 809.147 148.797 809.192 148.229C809.236 147.661 809.301 147.085 809.388 146.5H803.438C803.292 147.083 803.182 147.66 803.109 148.229C803.035 148.798 802.999 149.389 803 150C803 150.613 803.037 151.203 803.11 151.771C803.184 152.339 803.293 152.916 803.438 153.5ZM804.925 143H810.088C810.35 141.892 810.678 140.82 811.073 139.784C811.467 138.748 811.926 137.749 812.45 136.787C810.817 137.313 809.365 138.115 808.096 139.194C806.827 140.273 805.77 141.542 804.925 143ZM813.675 143H820.325C819.975 141.717 819.523 140.506 818.969 139.369C818.415 138.231 817.758 137.138 817 136.088C816.242 137.138 815.585 138.231 815.031 139.369C814.477 140.506 814.025 141.717 813.675 143ZM823.913 143H829.075C828.229 141.542 827.172 140.273 825.902 139.194C824.633 138.115 823.182 137.313 821.55 136.787C822.075 137.75 822.535 138.749 822.929 139.785C823.323 140.821 823.651 141.893 823.913 143ZM817 167.5C814.608 167.5 812.348 167.04 810.219 166.121C808.09 165.202 806.23 163.948 804.64 162.359C803.051 160.77 801.797 158.91 800.877 156.781C799.958 154.652 799.499 152.392 799.5 150C799.5 147.579 799.96 145.311 800.879 143.196C801.798 141.081 803.053 139.229 804.642 137.642C806.231 136.051 808.089 134.797 810.217 133.879C812.345 132.961 814.606 132.501 817 132.5C819.421 132.5 821.689 132.96 823.804 133.879C825.919 134.798 827.771 136.053 829.359 137.642C830.949 139.231 832.203 141.083 833.121 143.198C834.039 145.313 834.499 147.58 834.5 150C834.5 150.292 834.492 150.583 834.477 150.875C834.462 151.167 834.441 151.458 834.413 151.75H830.869C830.927 151.458 830.964 151.174 830.979 150.896C830.994 150.618 831.001 150.32 831 150C831 149.388 830.963 148.797 830.89 148.229C830.816 147.661 830.707 147.085 830.563 146.5H824.613C824.7 147.083 824.766 147.66 824.81 148.229C824.855 148.798 824.876 149.389 824.875 150V150.898C824.875 151.174 824.86 151.458 824.831 151.75H821.331C821.36 151.458 821.375 151.174 821.375 150.896V150C821.375 149.388 821.353 148.797 821.309 148.229C821.264 147.661 821.199 147.085 821.113 146.5H812.888C812.8 147.083 812.734 147.66 812.69 148.229C812.645 148.798 812.624 149.389 812.625 150C812.625 150.613 812.647 151.203 812.692 151.771C812.736 152.339 812.801 152.916 812.888 153.5H818.75V157H813.675C814.025 158.283 814.477 159.494 815.031 160.631C815.585 161.769 816.242 162.863 817 163.913C817.321 163.446 817.627 162.972 817.919 162.49C818.21 162.008 818.488 161.52 818.75 161.025V167.413C818.458 167.442 818.174 167.464 817.898 167.479C817.621 167.494 817.322 167.501 817 167.5ZM825.75 161.244V163.388C825.75 163.883 825.582 164.299 825.246 164.635C824.91 164.971 824.495 165.139 824 165.138C823.504 165.138 823.088 164.97 822.752 164.635C822.416 164.3 822.249 163.885 822.25 163.388V157C822.25 156.504 822.418 156.088 822.754 155.752C823.09 155.416 823.505 155.249 824 155.25H830.388C830.883 155.25 831.299 155.418 831.635 155.754C831.971 156.09 832.139 156.505 832.138 157C832.138 157.496 831.97 157.912 831.635 158.248C831.3 158.584 830.885 158.751 830.388 158.75H828.2L832.138 162.688C832.458 163.008 832.619 163.41 832.619 163.892C832.619 164.373 832.458 164.789 832.138 165.138C831.788 165.488 831.372 165.663 830.892 165.663C830.411 165.663 829.995 165.488 829.644 165.138L825.75 161.244Z" fill="#EC0574"/>
<defs>
<clipPath id="clip0_149_710">
<rect width="39.598" height="39.598" fill="white" transform="translate(280 150) rotate(135)"/>
</clipPath>
<clipPath id="clip1_149_710">
<rect width="39.598" height="39.598" fill="white" transform="translate(506 150) rotate(135)"/>
</clipPath>
<clipPath id="clip2_149_710">
<rect width="39.598" height="39.598" fill="white" transform="translate(732 150) rotate(135)"/>
</clipPath>
</defs>
</svg>
